<?xml version="1.0" encoding="utf-8"?>
<svg version="1.1" xmlns="http://www.w3.org/2000/svg" width="160px" height="56px" viewBox="0 0 1621.9 560.72">
  <style>
    .st0 {
      fill: #f0f0f0;
    }
  </style>
  <path class="st0"
    d="M648 273.19h40.01a3.435 3.435 0 003.39-3.16v-54h41.34a4.011 4.011 0 003.84-2.94l3.16-31.62c.01-.16.01-.32 0-.48a2.712 2.712 0 00-2.94-2.46h-45.4v-20.55h57.38a3.207 3.207 0 003.38-3.39v-34.11c-.07-1.8-1.58-3.22-3.38-3.16H648a3.233 3.233 0 00-3.16 3.16V269.8a3.435 3.435 0 003.16 3.39zM765.05 273.18h39.75a3.473 3.473 0 003.39-3.39v-75.67c2.94-5.65 10.62-9.49 19.2-9.49H833.41a3.086 3.086 0 003.02-3.16V152.1v-.15a3.087 3.087 0 00-3.17-3.01h-5.87c-11.97 0-23.04 5.19-29.82 13.55l-3.38-9.94c-.68-1.8-1.81-3.38-3.62-3.38h-25.52a3.435 3.435 0 00-3.39 3.16v117.46a3.473 3.473 0 003.39 3.39zM903.07 276.57c17.39 0 34.76-4.75 46.76-12.65 1.58-.91 2.03-1.81 1.58-3.39l-9.69-28.01c-.03-.21-.1-.42-.19-.61a2.415 2.415 0 00-3.2-1.2 85.797 85.797 0 01-34.56 7.46c-19 0-19-14.24-19-14.24h72.51c2.04 0 3.17-.9 3.39-2.7.64-3.35.94-6.76.91-10.17 0-41.11-22.14-65.28-59.64-65.28-39.3 0-65.51 26.2-65.51 65.51 0 39.07 26.64 65.28 66.64 65.28zm-1.58-92.84c9.03 0 15.13 6.55 15.13 16.49h-32.07c0-9.94 6.77-16.49 16.94-16.49zM1094.86 221.23c.64-3.35.94-6.76.9-10.17 0-41.11-22.13-65.28-59.63-65.28-39.31 0-65.51 26.2-65.51 65.51 0 39.07 26.64 65.28 66.64 65.28 17.39 0 34.76-4.75 46.76-12.65 1.58-.91 2.03-1.81 1.58-3.39l-9.66-28.01c-.03-.21-.1-.42-.19-.62a2.408 2.408 0 00-3.19-1.19 85.797 85.797 0 01-34.56 7.46c-19 0-19-14.24-19-14.24h72.47c2.03 0 3.16-.9 3.39-2.7zm-76.12-21.01c0-9.94 6.77-16.49 16.94-16.49 9.03 0 15.13 6.55 15.13 16.49h-32.07zM1111.84 273.16h81.55A3.845 3.845 0 001197 270l3.14-34.32v-.1a3.01 3.01 0 00-2.94-3.06h-41.98V120.7a3.47 3.47 0 00-3.38-3.38h-40a3.455 3.455 0 00-3.38 3.38V270a3.433 3.433 0 003.38 3.16zM1338.84 211.06c0-39.06-26.67-65.28-66.43-65.28s-66.41 26.2-66.41 65.51c0 39.07 26.68 65.28 66.43 65.28s66.41-26.21 66.41-65.51zm-88.78.23c0-14.91 9.01-24.85 22.37-24.85s22.36 9.94 22.36 24.62c0 14.91-8.99 24.85-22.36 24.85s-22.37-9.94-22.37-24.62zM1473.04 148.97h-24c-1.8 0-3.84 1.39-5.19 3.39l-4.07 6.32c-5.83-8.13-19.61-12.87-37-12.87-34.56 0-54.89 23.7-54.89 63.7 0 35.69 21.89 59.41 54.89 59.41 12.65 0 23.49-4.78 27.1-12l.01 6.56c0 12.87-8.58 20.32-22.81 20.32-15.14 0-30.04-4.74-39.76-12.65-1.39-.9-2.71-.22-3.39 1.36l-11.52 28c-.41 1.44.14 2.98 1.36 3.84 11.07 9.04 30.94 14.23 53.31 14.23 38.35 0 69.35-22.81 69.35-56.92v-109.3a3.2 3.2 0 00-3.39-3.39zm-43.16 72.01s-3.38 10.16-15.58 10.16c-11.3 0-17.85-8.12-17.85-21.68S1403 188 1414.3 188c12.2 0 15.58 10.18 15.58 10.18v22.8zM1555.49 145.78c-39.76 0-66.41 26.2-66.41 65.51 0 39.07 26.65 65.28 66.41 65.28s66.41-26.21 66.41-65.51c0-39.06-26.65-65.28-66.41-65.28zm0 90.13c-13.36 0-22.36-9.94-22.36-24.62 0-14.91 9-24.85 22.36-24.85s22.36 9.94 22.36 24.62c0 14.91-9 24.85-22.36 24.85zM700.43 301.19H648a3.435 3.435 0 00-3.16 3.39v149.09a3.435 3.435 0 003.16 3.39h52.43c47.89 0 79.74-31.4 79.74-77.94 0-46.98-31.85-77.93-79.74-77.93zm2.71 115.21H691.4v-74.55h11.74c17.4 0 29.14 14.9 29.14 37.27s-11.74 37.28-29.14 37.28zM854.73 329.65c-39.31 0-65.51 26.21-65.51 65.51 0 39.08 26.64 65.28 66.64 65.28 17.39 0 34.76-4.74 46.76-12.65 1.58-.9 2.03-1.8 1.58-3.38l-9.69-28.01a2.41 2.41 0 00-3.39-1.81 85.62 85.62 0 01-34.56 7.45c-19 0-19-14.23-19-14.23h72.51c2.03.01 3.16-.9 3.39-2.71.64-3.35.94-6.75.9-10.16 0-41.12-22.14-65.29-59.63-65.29zm-17.4 54.44c0-9.94 6.78-16.49 16.94-16.49 9.04 0 15.14 6.55 15.14 16.49h-32.08zM971.97 369.41c0-3.61 3.17-5.87 7.91-5.42 7.7 0 17.19 3.61 26 9.26a1.859 1.859 0 002.93-.9l11.52-26.66c.46-1.16-.22-2.26-1.35-3.16-11.97-7.68-29.59-12.88-44.28-12.88-30.72 0-51.27 16.27-51.27 40.44 0 42.47 49.47 38.85 49.47 50.37 0 3.39-3.17 6.1-7.91 5.65-7.7 0-17.19-4.07-26-9.26a1.859 1.859 0 00-2.93.9l-11.52 26.2c-.46 1.36.22 2.49 1.35 3.62 12.63 7.68 30.95 12.87 45.63 12.87 30.05 0 49.92-16.26 49.92-40.43 0-42.92-49.47-38.6-49.47-50.6zM1077.7 332.82l-39.76.02a3.435 3.435 0 00-3.39 3.16v117.67a3.487 3.487 0 003.39 3.39h39.76a3.487 3.487 0 003.39-3.39V335.98a3.435 3.435 0 00-3.39-3.16zM1057.6 283.12c-14.91 0-24.85 9.27-24.85 23.27 0 13.36 9.95 22.36 24.85 22.36s24.84-9.03 24.84-22.36c0-14.01-9.93-23.27-24.84-23.27zM1218.9 332.85h-24c-1.8 0-3.84 1.39-5.19 3.39l-4.07 6.32c-5.83-8.13-19.61-12.88-37-12.88-34.57 0-54.9 23.7-54.9 63.7 0 35.7 21.9 59.41 54.9 59.41 12.65 0 23.49-4.77 27.1-12l.01 6.56c0 12.88-8.58 20.33-22.81 20.33-15.14 0-30.05-4.74-39.76-12.65-1.39-.9-2.71-.22-3.39 1.36l-11.52 28c-.41 1.44.14 2.98 1.36 3.84 11.07 9.03 30.94 14.23 53.31 14.23 38.4 0 69.34-22.81 69.34-56.93V336.24a3.19 3.19 0 00-3.38-3.39zm-43.16 72.03s-3.39 10.16-15.58 10.16c-11.3 0-17.85-8.14-17.85-21.69s6.55-21.45 17.85-21.45c12.19 0 15.58 10.16 15.58 10.16v22.82zM1309.93 329.65c-13.78 0-29.14 4.75-36.37 12.66l-2.94-7.21a3.686 3.686 0 00-3.62-2.26h-25.29a3.42 3.42 0 00-.64 0c-1.57.18-2.7 1.59-2.52 3.16v117.67a3.487 3.487 0 003.39 3.39h39.75a3.487 3.487 0 003.39-3.39v-69.12s2.04-12.65 14.91-12.65c7.01 0 11.07 5.23 11.07 14.23v67.54c-.01.09-.01.17-.01.26a3.15 3.15 0 003.17 3.13h39.76a3.487 3.487 0 003.39-3.39v-74.55c0-35.24-16.72-49.47-47.44-49.47zM190.24 203.29h-62.41c-4.49-1.16-9.69-.52-14.79 2.75a15.378 15.378 0 00-5.93 9.13c-.53 1.7-.8 3.51-.76 5.39.03 1.11.17 2.18.4 3.22v48.96c-.28 1.29-.43 2.62-.4 3.99.03 1.11.17 2.18.4 3.22v46.22c0 10.05 8.25 18.18 18.25 17.36 8.74-.73 15.45-8.03 15.46-16.8V293.17h26.78c.27.01.55.01.82 0 9.31-.23 16.67-7.96 16.44-17.27-.23-9.31-7.96-16.67-17.27-16.44h-26.78V237h49.78c.27.01.55.01.82 0 9.31-.23 16.67-7.96 16.44-17.27-.21-9.3-7.94-16.67-17.25-16.44zM313.67 309.89H263.9v-89.77-.59-.23c-.23-9.31-7.96-16.67-17.27-16.44-9 .22-16.16 7.46-16.42 16.36 0 .11-.02.21-.02.32v103.59c-.29 1.3-.44 2.65-.41 4.04.11 4.7 2.15 8.91 5.33 11.89 3.15 3.16 7.53 5.08 12.34 4.96 1.13-.03 2.22-.17 3.28-.41h62.94c9.31-.01 16.84-7.55 16.85-16.86-.01-9.31-7.55-16.85-16.85-16.86zM383.59 203.24a17.14 17.14 0 00-3.95-.39c-9 .22-16.16 7.46-16.42 16.36 0 .11-.02.21-.02.32V326.74c.01 9.31 7.55 16.85 16.86 16.86.33 0 .65-.03.97-.05.14 0 .28.02.42.02h27.09c40.9 0 69.37-29.67 69.37-70.17s-28.47-70.16-69.37-70.16h-24.95zm59.62 70.14c0 18.24-11.77 36.7-34.28 36.7h-12.02v-73.4h12.02c22.51 0 34.28 18.46 34.28 36.7z" />
  <path class="st0"
    d="M82.12 82.12A280.361 280.361 0 00-.01 280.39C0 435.22 125.53 560.73 280.36 560.72c74.4.2 145.78-29.37 198.24-82.12 109.48-109.48 109.48-287 0-396.48s-287-109.48-396.48 0zm198.24 448.6C142.31 530.72 30 418.41 30 280.36S142.31 30 280.36 30s250.36 112.31 250.36 250.36-112.31 250.36-250.36 250.36z" />
</svg>