<?xml version="1.0" encoding="utf-8"?>
<svg version="1.1" xmlns="http://www.w3.org/2000/svg" width="56px" height="56px" viewBox="0 0 560.72 560.72">
  <style>
    .st0 {
      fill: #f0f0f0;
    }
  </style>
  <path class="st0"
    d="M190.24 203.29h-62.41c-4.49-1.16-9.69-.52-14.79 2.75a15.378 15.378 0 00-5.93 9.13c-.53 1.7-.8 3.51-.76 5.39.03 1.11.17 2.18.4 3.22v48.96c-.28 1.29-.43 2.62-.4 3.99.03 1.11.17 2.18.4 3.22v46.22c0 10.05 8.25 18.18 18.25 17.36 8.74-.73 15.45-8.03 15.46-16.8V293.17h26.78c.27.01.55.01.82 0 9.31-.23 16.67-7.96 16.44-17.27-.23-9.31-7.96-16.67-17.27-16.44h-26.78V237h49.78c.27.01.55.01.82 0 9.31-.23 16.67-7.96 16.44-17.27-.21-9.3-7.94-16.67-17.25-16.44zM313.67 309.89H263.9v-89.77-.59-.23c-.23-9.31-7.96-16.67-17.27-16.44-9 .22-16.16 7.46-16.42 16.36 0 .11-.02.21-.02.32v103.59c-.29 1.3-.44 2.65-.41 4.04.11 4.7 2.15 8.91 5.33 11.89 3.15 3.16 7.53 5.08 12.34 4.96 1.13-.03 2.22-.17 3.28-.41h62.94c9.31-.01 16.84-7.55 16.85-16.86-.01-9.31-7.55-16.85-16.85-16.86zM383.59 203.24a17.14 17.14 0 00-3.95-.39c-9 .22-16.16 7.46-16.42 16.36 0 .11-.02.21-.02.32V326.74c.01 9.31 7.55 16.85 16.86 16.86.33 0 .65-.03.97-.05.14 0 .28.02.42.02h27.09c40.9 0 69.37-29.67 69.37-70.17s-28.47-70.16-69.37-70.16h-24.95zm59.62 70.14c0 18.24-11.77 36.7-34.28 36.7h-12.02v-73.4h12.02c22.51 0 34.28 18.46 34.28 36.7z" />
  <path class="st0"
    d="M82.12 82.12A280.361 280.361 0 00-.01 280.39C0 435.22 125.53 560.73 280.36 560.72c74.4.2 145.78-29.37 198.24-82.12 109.48-109.48 109.48-287 0-396.48s-287-109.48-396.48 0zm198.24 448.6C142.31 530.72 30 418.41 30 280.36S142.31 30 280.36 30s250.36 112.31 250.36 250.36-112.31 250.36-250.36 250.36z" />
</svg>